<svg width="24" height="25" viewBox="0 0 24 25" fill="none" xmlns="http://www.w3.org/2000/svg">
    <path d="M19 13.86H2c-.41 0-.75-.34-.75-.75s.34-.75.75-.75h17c.41 0 .75.34.75.75s-.34.75-.75.75z" fill="#999"/>
    <path d="M15.22 22.25H5.78c-3.43 0-4.53-1.09-4.53-4.48v-6.99c0-2.69.61-4.28 3.71-4.46.26-.01.53-.02.82-.02h9.44c3.43 0 4.53 1.09 4.53 4.48v7.15c-.04 3.27-1.14 4.32-4.53 4.32zM5.78 7.8c-.27 0-.52.01-.75.02-1.79.11-2.28.49-2.28 2.96v6.99c0 2.56.42 2.98 3.03 2.98h9.44c2.58 0 3-.4 3.03-2.83v-7.14c0-2.56-.42-2.98-3.03-2.98H5.78z" fill="#999"/>
    <path d="M19 18.68c-.19 0-.38-.07-.51-.2a.756.756 0 0 1-.24-.55v-7.15c0-2.56-.42-2.98-3.03-2.98H5.78c-.27 0-.52.01-.75.02-.2.01-.4-.07-.55-.21a.747.747 0 0 1-.23-.55c.04-3.26 1.14-4.31 4.53-4.31h9.44c3.43 0 4.53 1.09 4.53 4.48v6.99c0 2.69-.61 4.28-3.71 4.46H19zM5.78 6.3h9.44c3.43 0 4.53 1.09 4.53 4.48v6.32c1.16-.21 1.5-.81 1.5-2.88V7.23c0-2.56-.42-2.98-3.03-2.98H8.78c-2.28 0-2.87.31-3 2.05z" fill="#999"/>
    <path d="M6.96 18.559H5.24a.256.256 0 0 1-.25-.25c0-.134.116-.25.25-.25h1.72c.134 0 .25.116.25.25 0 .138-.11.25-.25.25zM12.55 18.559H9.11a.256.256 0 0 1-.25-.25c0-.134.116-.25.25-.25h3.44c.134 0 .25.116.25.25 0 .138-.11.25-.25.25z" fill="#999" stroke="#0C186C"/>
</svg>
