<svg width="24" height="25" viewBox="0 0 24 25" fill="none" xmlns="http://www.w3.org/2000/svg">
    <path d="M2 8.381a3.53 3.53 0 0 1 3.53-3.53h12.94A3.53 3.53 0 0 1 22 8.382v.294a.882.882 0 0 1-.882.882 2.647 2.647 0 0 0-2.647 2.647v.589a2.647 2.647 0 0 0 2.647 2.647c.487 0 .882.395.882.882v.294a3.53 3.53 0 0 1-3.53 3.53H5.53A3.53 3.53 0 0 1 2 16.616v-.294c0-.487.395-.882.882-.882a2.647 2.647 0 0 0 2.647-2.647v-.588a2.647 2.647 0 0 0-2.647-2.648A.882.882 0 0 1 2 8.675v-.294z" stroke="#999" stroke-width="1.5"/>
    <path d="M11.002 10.428 12 9.064l.998 1.364c.165.226.397.395.663.482l1.606.527-.99 1.371c-.163.227-.252.5-.253.78l-.005 1.69-1.61-.518a1.338 1.338 0 0 0-.819 0l-1.61.518-.004-1.69c-.001-.28-.09-.553-.253-.78l-.99-1.37 1.606-.528c.266-.087.498-.256.663-.482z" stroke="#0C186C" stroke-width="1.5"/>
</svg>
