<svg width="24" height="25" viewBox="0 0 24 25" fill="none" xmlns="http://www.w3.org/2000/svg">
    <path d="M9.25 9.55a8 8 0 0 0 5.5 0" stroke="#0C186C" stroke-width="1.5" stroke-linecap="round" stroke-linejoin="round"/>
    <path d="M16.82 2.5H7.18c-2.13 0-3.86 1.74-3.86 3.86v14.09c0 1.8 1.29 2.56 2.87 1.69l4.88-2.71c.52-.29 1.36-.29 1.87 0l4.88 2.71c1.58.88 2.87.12 2.87-1.69V6.36c-.01-2.12-1.74-3.86-3.87-3.86z" stroke="#999" stroke-width="1.5" stroke-linecap="round" stroke-linejoin="round"/>
    <path d="M16.82 2.5H7.18c-2.13 0-3.86 1.74-3.86 3.86v14.09c0 1.8 1.29 2.56 2.87 1.69l4.88-2.71c.52-.29 1.36-.29 1.87 0l4.88 2.71c1.58.88 2.87.12 2.87-1.69V6.36c-.01-2.12-1.74-3.86-3.87-3.86z" stroke="#999" stroke-width="1.5" stroke-linecap="round" stroke-linejoin="round"/>
</svg>
