<svg width="24" height="25" viewBox="0 0 24 25" fill="none" xmlns="http://www.w3.org/2000/svg">
    <path d="M8.672 14.83c0 1.29.99 2.33 2.22 2.33h2.51c1.07 0 1.94-.91 1.94-2.03 0-1.22-.53-1.65-1.32-1.93l-4.03-1.4c-.79-.28-1.32-.71-1.32-1.93 0-1.12.87-2.03 1.94-2.03h2.51c1.23 0 2.22 1.04 2.22 2.33M12 6.5v12" stroke="#0C186C" stroke-width="1.5" stroke-linecap="round" stroke-linejoin="round"/>
    <path d="M12 22.5c5.523 0 10-4.477 10-10s-4.477-10-10-10-10 4.477-10 10 4.477 10 10 10z" stroke="#999" stroke-width="1.5" stroke-linecap="round" stroke-linejoin="round"/>
</svg>
