<svg width="24" height="24" viewBox="0 0 24 24" fill="none" xmlns="http://www.w3.org/2000/svg">
    <path d="M15.273 6c1.313 0 1.97 0 2.441.281.205.122.38.278.516.46.316.421.316 1.007.316 2.179v7.925c0 1.573 0 2.36-.548 2.848-.548.489-1.43.489-3.193.489h-5.61c-1.763 0-2.645 0-3.193-.489-.547-.489-.547-1.275-.547-2.848V8.92c0-1.172 0-1.758.315-2.178.136-.183.312-.34.516-.46C6.757 6 7.414 6 8.727 6" stroke="#222" stroke-width="1.1"/>
    <path d="M9 5.545a2 2 0 0 1 2-2h2a2 2 0 1 1 0 4h-2a2 2 0 0 1-2-2z" stroke="#222" stroke-width="1.1"/>
    <path d="M9 11.453h6M9 15.455h4" stroke="#222" stroke-width="1.1" stroke-linecap="round"/>
</svg>
