<svg width="20" height="21" viewBox="0 0 20 21" fill="none" xmlns="http://www.w3.org/2000/svg">
    <g clip-path="url(#4pa88khtja)">
        <path d="M8.501 3.138c-.407 1.143-.692 2.503-.836 3.99a19.372 19.372 0 0 0-3.357.406 4.752 4.752 0 0 0-.19-.792C3.895 6.077 3.534 5.5 3.07 5.067a2.887 2.887 0 0 0-1.025-.628 10.035 10.035 0 0 1 4.061-3.151A9.912 9.912 0 0 1 9.97.5c-.586.66-1.079 1.542-1.469 2.638zm-7.126 2.41c.632.05 1.279.702 1.571 1.582.065.195.124.433.158.708-1.087.32-2.09.75-3.01 1.283.118-.865.351-1.71.692-2.514.156-.366.332-.722.529-1.068a.767.767 0 0 0 .06.009zm13.415-.884a4.166 4.166 0 0 0-1.975 2.416 4.765 4.765 0 0 0-.096.35 31.014 31.014 0 0 0-3.059-.295c-.254-.01-.505-.018-.754-.02.138-1.333.395-2.545.758-3.563.495-1.388 1.177-2.38 1.972-2.868a.494.494 0 0 0 .059-.042 9.98 9.98 0 0 1 5.906 3.36c-1.077.002-2.021.223-2.811.662zM.014 10.629a12.05 12.05 0 0 1 3.042-1.485 5.406 5.406 0 0 1-.217.815c-.41 1.171-1.222 2.329-2.411 3.444A9.936 9.936 0 0 1 0 10.636a.084.084 0 0 0 .014-.008zm8.789-2.003.01-.28c1.252.015 2.518.129 3.77.313.003.262.023.53.062.803.119.844.408 1.697.856 2.537.942 1.758 2.502 3.303 4.519 4.476a9.979 9.979 0 0 1-.95 1.096 9.96 9.96 0 0 1-5.848 2.855c-1.657-3.282-2.562-7.693-2.42-11.8zm5.138-.996c.015-.059.031-.117.05-.175.518-1.621 2.12-2.415 4.399-2.176a.582.582 0 0 0 .14-.002 9.926 9.926 0 0 1 1.381 3.879 46.012 46.012 0 0 0-5.97-1.526zM.942 14.601c1.517-1.34 2.547-2.766 3.06-4.235.2-.573.306-1.102.344-1.581a17.995 17.995 0 0 1 3.231-.42l-.008.217c-.072 2.05.107 4.233.519 6.316.403 2.044 1.008 3.926 1.798 5.602a9.959 9.959 0 0 1-6.958-2.927A9.967 9.967 0 0 1 .894 14.64a.37.37 0 0 0 .048-.04zm13.648-3.185c-.459-.857-.717-1.737-.762-2.552 2.113.388 4.157.955 5.987 1.56.06.02.122.03.185.031v.045a9.941 9.941 0 0 1-1.304 4.94c-2.327-1.338-3.517-2.922-4.106-4.024z" fill="#333"/>
    </g>
    <defs>
        <clipPath id="4pa88khtja">
            <path fill="#fff" transform="matrix(-1 0 0 1 20 .5)" d="M0 0h20v20H0z"/>
        </clipPath>
    </defs>
</svg>
