<svg width="20" height="21" viewBox="0 0 20 21" fill="none" xmlns="http://www.w3.org/2000/svg">
    <g clip-path="url(#ivlvs59xaa)">
        <path d="M19.67 7.74c.36 1.08.44 2.408.246 3.524a8.11 8.11 0 0 0-.098 1.23c-.041 1.983-1.206 3.943-2.67 5.231a13.8 13.8 0 0 1-1.212.915c-1.247.85-2.677 1.53-4.2 1.668a18.12 18.12 0 0 0-.649.07c-2.801.34-5.97-.518-7.979-2.56-.294-.298-.57-.611-.854-.921-.825-.891-1.131-1.792-1.594-2.859-.832-1.903-.915-4.688-.033-6.603.183-.395.32-.795.455-1.21.53-1.626 2.516-3.608 4.03-4.369.28-.141.568-.272.848-.413C7.625.582 10.085.299 11.895.788c.493.134.978.291 1.466.425 1.184.328 1.986.832 2.912 1.612 1.57 1.33 2.743 2.964 3.396 4.916z" fill="#333"/>
        <path d="M6.543 2.87c-.5.116-.84.25-1.199.621-.287.299-.56.612-.82.934-.236.29-.31.457-.146.805.32.68.68 1.34 1.056 1.994.229.4.403.542.873.505.482-.038.964-.075 1.441-.116.385-.03.589-.13.833-.43.697-.861 1.395-1.728 2.093-2.59.49-.608.482-.682.027-1.325-.441-.62-.474-.642-1.24-.671-.98-.037-1.962.055-2.918.273zM.425 9.772a8.817 8.817 0 0 0 .098 2.504.038.038 0 0 0 .063.02.038.038 0 0 0 .012-.023c.038-.49.086-.657.011-1.194-.064-.432-.1-.867-.108-1.302a.038.038 0 0 0-.075-.005zm18.647 2.195c.351-.231.4-.351.474-.77.108-.626.105-1.276.053-1.91-.041-.53-.187-.87-.475-1.32-.421-.658-.925-1.349-1.536-1.838-.362-.29-.385-.34-.791-.104-.344.197-.32.216-.294.616.089 1.37 0 2.759-.161 4.116-.03.232-.03.389.108.58.22.305.437.615.642.932.284.441.313.43.803.299.421-.115.817-.358 1.179-.601h-.002zm-8.807 7.91c1.948.33 3.878-.468 5.464-1.55.269-.187.314-.187.082-.36-.485-.354-.63-.466-1.1-.32-.531.164-1.065.306-1.606.421-.343.075-.56.176-.829.408a8.765 8.765 0 0 1-2.019 1.328l.008.072zM4.761 17.89c-.138-.787-.093-1.575.026-2.362.056-.366.022-.49-.186-.795a15.431 15.431 0 0 1-.971-1.598c-.186-.355-.314-.467-.698-.602-.175-.059-1.81-.663-1.887-.608-.086.064-.09.694-.086.792.008.34.075.537.224.844a20.114 20.114 0 0 0 2.397 3.833c.16.193.179.224.41.317.06.026.802.327.773.179h-.002zm8.499-16.314c-.519-.142-.724-.183-1.21.01-.216.087-1.295.617-1.347.879-.03.133.231.481.302.581.493.695.556.773 1.382 1.03 1.238.393 2.426.93 3.538 1.603.317.19.36.21.679.018.395-.23.343-.287.22-.724-.257-.9-1.097-2.223-1.937-2.71a7.132 7.132 0 0 0-1.627-.686v-.002zM9.3 14.553c.392-.06.492-.127.66-.484.266-.568.545-1.128.829-1.684.15-.288.15-.481-.015-.765a31.026 31.026 0 0 0-2.154-3.225c-.261-.343-.418-.44-.847-.407-.482.038-.96.079-1.441.116-.451.037-.63.153-.858.545a19.773 19.773 0 0 0-1.598 3.475c-.112.34-.078.518.09.836.28.53.59 1.044.93 1.538.22.317.388.37.769.365a24.26 24.26 0 0 0 3.635-.31zm5.3 2.733c.283-.09.433-.198.586-.452.634-1.048 1.217-2.146 1.664-3.287.187-.475.199-.646-.086-1.083a22.108 22.108 0 0 0-.611-.892c-.112-.157-.258-.163-.437-.13-1.299.257-2.613.466-3.923.657-.354.053-.503.141-.668.463a45.506 45.506 0 0 0-.828 1.683c-.153.327-.142.43.07.724.616.859 1.262 1.7 1.953 2.498.22.257.38.306.709.235a18.95 18.95 0 0 0 1.571-.415zM5.445 2.118c-.056.023-.127.06-.153.071-1.392.697-3.228 2.503-3.796 4.012-.015.033.033.065.06.04A9.13 9.13 0 0 1 3.344 4.92c.343-.19.647-.444.896-.747.264-.324.54-.637.827-.94.317-.327.467-.615.43-1.083l-.052-.032zM4.21 18.27a9.036 9.036 0 0 0 3.027 1.465.037.037 0 0 0 .045-.025.037.037 0 0 0-.023-.046 7.86 7.86 0 0 1-2.075-1.131c-.336-.251-.556-.21-.941-.325-.037-.016-.063.04-.033.062z" fill="#fff"/>
    </g>
    <defs>
        <clipPath id="ivlvs59xaa">
            <path fill="#fff" transform="translate(0 .5)" d="M0 0h20v20H0z"/>
        </clipPath>
    </defs>
</svg>
