<svg width="40" height="40" viewBox="0 0 40 40" fill="none" xmlns="http://www.w3.org/2000/svg">
    <circle cx="20" cy="20" r="20" fill="#66B33D"/>
    <path fill-rule="evenodd" clip-rule="evenodd" d="M12 25.754a3.696 3.696 0 0 0 3.692 3.692h8.616A3.696 3.696 0 0 0 28 25.754V13.692A3.697 3.697 0 0 0 24.308 10h-8.616A3.697 3.697 0 0 0 12 13.692v12.062zm4.123-12.97h7.754c.714 0 1.292.579 1.292 1.293V21.4c0 .713-.578 1.292-1.292 1.292h-7.754a1.292 1.292 0 0 1-1.292-1.292v-7.323c0-.714.579-1.293 1.292-1.293zm2.154 12.923a1.723 1.723 0 1 1 3.446 0 1.723 1.723 0 0 1-3.446 0z" fill="#fff"/>
</svg>
