<svg width="31" height="30" viewBox="0 0 31 30" fill="none" xmlns="http://www.w3.org/2000/svg">
    <g clip-path="url(#wqp1f0kq0a)">
        <path d="M29.682 13.291 17.058.668a2.249 2.249 0 0 0-1.55-.655V.012h-.016v.001a2.25 2.25 0 0 0-1.55.655L1.317 13.291c-.88.88-1.07 2.289.042 2.847.769.387 3.192.3 3.192.3l.02 11.284a2.268 2.268 0 0 0 2.262 2.262h17.333a2.268 2.268 0 0 0 2.26-2.262l.022-11.285s2.422.088 3.19-.299c1.112-.558.922-1.967.043-2.847z" fill="#0C186C"/>
        <path d="M15.608 24.854a6.872 6.872 0 0 1-6.864-6.865.798.798 0 0 1 1.595 0 5.275 5.275 0 0 0 5.27 5.27 5.275 5.275 0 0 0 5.269-5.27.798.798 0 0 1 1.595 0 6.872 6.872 0 0 1-6.864 6.865z" fill="#FDFBFB"/>
    </g>
    <defs>
        <clipPath id="wqp1f0kq0a">
            <path fill="#fff" transform="translate(.5)" d="M0 0h30v30H0z"/>
        </clipPath>
    </defs>
</svg>
