<svg width="21" height="21" viewBox="0 0 21 21" fill="none" xmlns="http://www.w3.org/2000/svg">
    <g clip-path="url(#v6q7wgah0a)">
        <path d="M10.502 20.5a9.96 9.96 0 0 1-5.11-1.404l3.001-4.291 4.232-.077 3.037 4.34a9.98 9.98 0 0 1-5.16 1.432zm-6.287-2.221A9.976 9.976 0 0 1 .5 10.487 9.986 9.986 0 0 1 .774 8.15L5.271 9.7l1.972 4.256-3.022 4.32-.006.002zm12.611-.04-3.055-4.368 1.98-4.176 4.476-1.545a10.09 10.09 0 0 1-.69 6.629 9.978 9.978 0 0 1-2.71 3.46zM8.54 13.376l-1.92-4.14 3.666-2.708 4.065 2.805-1.879 3.969-3.93.074h-.002zm6.847-5.066-4.172-2.88V.5a9.93 9.93 0 0 1 5.235 1.94 9.996 9.996 0 0 1 3.347 4.341l-4.407 1.522-.003.007zM5.51 8.276 1.2 6.791a10.046 10.046 0 0 1 3.347-4.349A9.962 9.962 0 0 1 9.787.5v4.617L5.516 8.273l-.005.003z" fill="#BBB"/>
    </g>
    <defs>
        <clipPath id="v6q7wgah0a">
            <path fill="#fff" transform="translate(.5 .5)" d="M0 0h20v20H0z"/>
        </clipPath>
    </defs>
</svg>
