<svg width="21" height="21" viewBox="0 0 21 21" fill="none" xmlns="http://www.w3.org/2000/svg">
    <g clip-path="url(#adqp2m652a)">
        <path d="M10.5.5C4.977.5.5 4.977.5 10.5a9.955 9.955 0 0 0 1.49 5.255c.53.855-.806 2.62-.778 4.069.012.63 3.893-.869 4.554-.513A9.955 9.955 0 0 0 10.5 20.5c5.523 0 10-4.477 10-10s-4.477-10-10-10zm.06 14H6.833a.666.666 0 1 1 0-1.333h3.727a.667.667 0 1 1 0 1.333zm3.607-3.333H6.833a.667.667 0 0 1 0-1.334h7.334a.667.667 0 1 1 0 1.334zm0-3.334H6.833a.667.667 0 0 1 0-1.333h7.334a.667.667 0 1 1 0 1.333z" fill="#BBB"/>
    </g>
    <defs>
        <clipPath id="adqp2m652a">
            <path fill="#fff" transform="translate(.5 .5)" d="M0 0h20v20H0z"/>
        </clipPath>
    </defs>
</svg>
